<?xml version="1.0" encoding="utf-8"?>
<!-- Generator: Adobe Illustrator 21.1.0, SVG Export Plug-In . SVG Version: 6.00 Build 0)  -->
<svg version="1.1" id="Layer_1" xmlns="http://www.w3.org/2000/svg" xmlns:xlink="http://www.w3.org/1999/xlink" x="0px" y="0px"
	 viewBox="0 0 468 123" style="enable-background:new 0 0 468 123;" xml:space="preserve">
<style type="text/css">
	.st0{fill:#FFC627;}
	.st1{fill:#0D2240;}
	.st2{fill-rule:evenodd;clip-rule:evenodd;fill:#0D2240;}
</style>
<g>
	<polygon class="st0" points="207.3,4.3 185.1,4.3 184.4,7.2 190.8,7.2 182.9,12.9 180.2,23.7 207.3,4.3 	"/>
	<polygon class="st1" points="123.8,4.3 145.9,4.3 126.4,82.4 104.2,82.4 123.8,4.3 	"/>
	<polygon class="st1" points="154.5,4.3 176.7,4.3 157.1,82.4 134.9,82.4 154.5,4.3 	"/>
	<polygon class="st1" points="180.1,24.1 202.4,24.1 187.9,82.4 165.7,82.4 180.1,24.1 	"/>
	<path class="st1" d="M396.1,42.9c-2.7-1.2-5.2-2-7.7-2.5c-2.5-0.5-4.8-0.8-6.8-0.8c-5,0-9,1.4-12.2,4.2c-9.1,7.7-6.4,16.5-4.2,19.3
		c2,3,7.9,6.5,18.3,3.2c2.4-0.7,4.8-1.6,7.4-2.8l-7.3,18.1c-7.8,2.8-16.2,2.8-17.3,2.8c-8.2,0-15-2.4-20.3-7.3
		c-5.4-4.9-6.6-13.2-3.7-24.8c2-8.1,6-15.1,12.1-20.9c6-5.9,14.8-8.9,26.2-8.9c2.7,0,5.6,0.2,8.6,0.6c3.1,0.3,6.4,0.9,9.7,1.8
		L396.1,42.9L396.1,42.9z"/>
	<path class="st1" d="M296.2,32.7c2.3-2.6,5.7-4.9,10-6.7c4.3-1.9,12.6-4.1,18-4.1c5.2,0,9.6,1.4,13.2,4.1c3.6,2.6,4.7,7.1,3.3,13.3
		l-10.8,43.1h-22.2l7.6-30.4c0.9-3.5,0.6-6.3-0.9-8.2c-1.4-1.9-6.3-6.6-15.9,1.8c-2.7,2.5-4.8,6-6.2,10.5l-6.6,26.4h-22.2l14.4-57.8
		h20.1L296.2,32.7L296.2,32.7z"/>
	<path class="st1" d="M215.3,27.3c6-1.4,11.4-2.3,16.1-2.9c4.8-0.7,9-1,12.7-1c8.9,0,15,1.5,18.2,4.6c3.3,3,4.6,6.5,3.8,10.5l-11,44
		h-22.3l6.4-25.6c-1.1,0.7-2.3,1.3-3.5,1.8c-1.2,0.4-9.9,3-11.6,3.7c-6.9,3.3-4.6,7.1-3.7,8.1c3,3,10.5,0.3,10.7,0.3l-5.8,12.7
		c-0.4,0-7.6,0.5-8.4,0.5c-8.4,0-14-1.5-17-4.6c-6.6-5.9-5.6-23.7,16.2-29.3c2.7-0.8,5.4-1.4,8-2c2.6-0.6,5-1.2,7.2-1.8
		c2.8-0.7,5.1-1.4,7-2.2c5.6-2.8,5-7.6-4.9-7.6c-2.4,0-5.5,0.4-9.3,1.3c-3.8,0.8-8.6,2.2-14.3,4.4L215.3,27.3L215.3,27.3z"/>
	<path class="st1" d="M264.4,117.1c2.8-10,4.8-16.4,7-22.9H266c-2.5,9.2-4.8,16-7.1,22.9H264.4L264.4,117.1z"/>
	<path class="st1" d="M293.7,106.7c3.8-0.7,7-2.7,8.1-6.7c1.2-4.3-1.9-5.7-5.9-5.7h-10.3c-2.1,7.7-4.4,15.3-7.2,22.9h5.2
		c1-3.4,4.8-16.4,5.7-19.4c1.3-0.1,2.5-0.2,3.7-0.2c2.1,0,4.4,0.3,3.7,3c-0.8,2.9-3.6,4.1-6.2,4.1c-0.7,0-1.3-0.1-2-0.2
		c0.9,4.2,2,8.3,2.5,12.7h5.5L293.7,106.7L293.7,106.7z"/>
	<path class="st1" d="M326.6,113.4c-2.2,0.1-4.4,0.1-6.6,0.1h-4.2c1.3-4.4,5.4-17.2,6.1-19.3h-5.4c-2.2,7.7-4.5,15.3-7.3,22.9h16
		L326.6,113.4L326.6,113.4z"/>
	<path class="st1" d="M342.3,117.1c2.8-10,4.8-16.4,7-22.9h-5.4c-2.5,9.2-4.8,16-7.1,22.9H342.3L342.3,117.1z"/>
	<path class="st1" d="M372.4,117.1h6.1c2.2-7.6,4.7-15.5,7.3-22.9H381c-1.6,5.7-3.6,12-5.3,17.3h-0.1c-1.8-5.8-4.1-11.4-5.9-17.3
		h-6.3c-2.2,7.7-4.5,15.3-7.2,22.9h4.8c1.7-6,3.7-12.4,5.1-17h0.1L372.4,117.1L372.4,117.1z"/>
	<path class="st1" d="M400,94.2c-1.2,4.6-5.3,18.2-7.2,22.9h16.8l1.2-3.8c-3,0.2-4,0.2-4.9,0.2h-6.7l2-6.3h10.1l1.1-3.5
		c-1.9,0-3.3,0.1-4.6,0.1h-5.5l1.9-6h5.6c2,0,3.9,0,5.8,0.1l1.2-3.8H400L400,94.2z"/>
	<path class="st1" d="M443,94.4c-1.7-0.4-3.4-0.6-5.3-0.6c-4.1,0-8.4,1.8-9.5,5.8c-1.5,5.6,6.7,8.1,5.7,11.7c-0.5,2-2.8,2.6-4.4,2.6
		c-2.1,0-4-0.6-5.6-1.5l-0.8,4.2c2,0.5,4,0.9,6.2,0.9c6.4,0,9.1-3.6,9.8-6.2c1.5-5.4-6.8-7.8-5.8-11.3c0.4-1.5,2.3-2.6,4.4-2.6
		c1.6,0,3.1,0.4,4.5,1L443,94.4L443,94.4z"/>
	<path class="st2" d="M55.7,43.8h18.2l-2.7-22.2L55.7,43.8L55.7,43.8z M61,4.3l39.6,0L92,13.6l11.1,68.9H77.3l-2.5-22.8H47.4
		L31.2,82.4H5.4L61,4.3L61,4.3z"/>
	<path class="st2" d="M236.1,105.5l5.8-7.7l0.6,7.7H236.1L236.1,105.5z M242.4,109.1c0.3,2.5,0.5,5.3,0.6,8h5.5
		c-0.8-7.6-1.7-15.3-2.2-22.9h-6.2c-5.9,7.7-12,15.4-18.1,22.9h5.7c2-2.7,4-5.5,6-8H242.4L242.4,109.1z"/>
	<path class="st2" d="M439.4,45.8c0.9-3.6,0.6-6.3-1.1-7.9c-1.6-1.5-3.7-2.3-6.4-2.3c-2.4,0-4.7,0.9-7.1,2.7c-2.4,1.8-4,4.3-4.8,7.5
		L439.4,45.8L439.4,45.8z M437,22.5c8.4-0.3,17.2,3,20.7,8.6c3.5,5.6,4.4,11.9,2.6,19c-0.3,1.1-1.9,5.7-2.3,6.8l-41.7-0.1
		c0.2,4.1,1.5,7.2,4,9.4c2.5,2.1,6.1,3.2,10.7,3.2c2.7,0,5.8-0.4,9.2-1.1c3.5-0.8,7.2-1.8,11.1-3l-6,16.3c-4.1,1-8,1.8-11.7,2.3
		c-3.6,0.6-7,0.9-10.1,0.9c-12,0-20.2-3.2-24.6-9.6c-5.1-7.2-10.5-24.7,10.2-43C419.5,23,429.1,22.8,437,22.5L437,22.5z"/>
</g>
</svg>
